<?xml version="1.0" standalone="no"?><!DOCTYPE svg PUBLIC "-//W3C//DTD SVG 1.1//EN" "http://www.w3.org/Graphics/SVG/1.1/DTD/svg11.dtd"><svg t="1539512137910" class="icon" style="" viewBox="0 0 1024 1024" version="1.1" xmlns="http://www.w3.org/2000/svg" p-id="4652" xmlns:xlink="http://www.w3.org/1999/xlink" width="200" height="200"><defs><style type="text/css"></style></defs><path d="M991.893998 717.540405l-52.898704-52.967897a3.04453 3.04453 0 0 1-0.830326-2.871546 446.30038 446.30038 0 0 0 11.001823-98.047696c0-244.21972-198.344192-442.840688-442.183346-442.840687a437.547358 437.547358 0 0 0-193.18925 44.457053 3.079127 3.079127 0 0 1-1.34928 0.311373 3.009933 3.009933 0 0 1-2.145009-0.899521L266.050434 120.362819a8.026487 8.026487 0 0 0-5.500912-1.764444 9.029798 9.029798 0 0 0-6.262044 2.110413 8.78762 8.78762 0 0 0 0.172985 11.278599l44.976007 44.976007a31.289462 31.289462 0 1 1-44.214875 44.284069l-13.838771-13.838772a3.459693 3.459693 0 0 1-0.864924-0.864923L200.696835 166.584316a33.213052 33.213052 0 0 0-23.76809-9.721737 34.596929 34.596929 0 0 0-24.529222 10.102303 35.980806 35.980806 0 0 0-10.379079 24.460028 32.936276 32.936276 0 0 0 9.444962 24.21785l36.084596 36.292179a2.906142 2.906142 0 0 1 1.210893 1.210892l6.019866 6.019866a40.063243 40.063243 0 0 1 0 56.531381l-2.871546 2.871545a39.855662 39.855662 0 0 1-56.254606 0.207582 3.182917 3.182917 0 0 1-1.591458-1.418474v-0.311372l-33.662812-33.697409a42.24285 42.24285 0 0 0-30.272313-12.108925 49.439011 49.439011 0 0 0-34.80451 14.357725 44.976007 44.976007 0 0 0 0 63.554558l56.531382 56.600576a3.113724 3.113724 0 0 1 0.691938 3.252111 443.290448 443.290448 0 0 0 148.766794 508.574852h531.443422a441.526004 441.526004 0 0 0 62.828022-57.67308 3.079127 3.079127 0 0 1 2.214204-1.003311 3.182917 3.182917 0 0 1 2.2488 0.89952l10.828839 10.863436a44.976007 44.976007 0 0 0 63.485364 0 46.152303 46.152303 0 0 0 13.423608-32.348128 44.422456 44.422456 0 0 0-12.870057-32.244338l-21.346305-21.380902a3.079127 3.079127 0 0 1-1.107102-1.107102l-48.4357-48.712475a24.529222 24.529222 0 1 1 34.596929-34.596929l38.921544 38.990739 0.276776 0.276775 25.982293 26.051487a33.247648 33.247648 0 0 0 23.76809 9.790931 34.008781 34.008781 0 0 0 24.21785-57.915258z" fill="#03A9F4" p-id="4653"></path><path d="M634.853694 0.000104a20.377591 20.377591 0 1 0 20.446785 20.342994A20.377591 20.377591 0 0 0 634.853694 0.000104z m178.554749 68.571113h-15.43023v-15.361037a1.383877 1.383877 0 0 0-1.34928-1.34928h-10.379079a1.383877 1.383877 0 0 0-1.34928 1.34928v15.361037h-15.43023a1.314683 1.314683 0 0 0-1.314684 1.314683v10.379078a1.314683 1.314683 0 0 0 1.314684 1.314684h15.43023v15.361036a1.34928 1.34928 0 0 0 1.34928 1.314683h10.379079a1.34928 1.34928 0 0 0 1.34928-1.314683v-15.464827h15.43023a1.314683 1.314683 0 0 0 1.314683-1.314683v-10.379079a1.314683 1.314683 0 0 0-1.314683-1.210892zM447.442131 19.651159h-12.973848V6.781102a1.34928 1.34928 0 0 0-1.280087-1.418474h-8.545441a1.34928 1.34928 0 0 0-1.314683 1.34928v12.870057h-12.973849a1.34928 1.34928 0 0 0-1.314683 1.349281v8.649232a1.314683 1.314683 0 0 0 1.314683 1.314683h12.973849v12.904655a1.314683 1.314683 0 0 0 1.314683 1.314683h8.545441a1.314683 1.314683 0 0 0 1.314684-1.314683V30.895161h12.973848a1.314683 1.314683 0 0 0 1.314683-1.314683V21.10423a1.34928 1.34928 0 0 0-1.34928-1.453071z" fill="#B3E5FC" p-id="4654"></path><path d="M786.422839 587.94031a24.494626 24.494626 0 1 0 24.21785 24.494626 24.494626 24.494626 0 0 0-24.21785-24.494626z m0 43.073177a18.578551 18.578551 0 1 1 18.509356-18.578551 18.578551 18.578551 0 0 1-18.509356 18.578551z m-551.475044-231.799423a19.201295 19.201295 0 1 0 19.132101 19.166699 19.166699 19.166699 0 0 0-19.132101-19.305086z m0 32.451919a13.285221 13.285221 0 1 1 13.250624-13.28522 13.285221 13.285221 0 0 1-13.250624 13.146833zM168.76387 540.7501h-9.306574v-9.514156a1.314683 1.314683 0 0 0-1.314683-1.314683h-5.673896a1.314683 1.314683 0 0 0-1.34928 1.314683v9.375768h-9.306574a1.34928 1.34928 0 0 0-1.349281 1.314683v5.708493a1.34928 1.34928 0 0 0 1.349281 1.314684h9.306574v9.341171a1.314683 1.314683 0 0 0 1.34928 1.34928h5.673896a1.314683 1.314683 0 0 0 1.314683-1.34928v-9.341171h9.306574a1.314683 1.314683 0 0 0 1.34928-1.314684v-5.708493a1.314683 1.314683 0 0 0-1.34928-1.314683z m604.339151-241.313578v-7.611324a1.34928 1.34928 0 0 0-1.34928-1.314684h-11.901344v-11.832149a1.34928 1.34928 0 0 0-1.314683-1.349281h-7.680518a1.34928 1.34928 0 0 0-1.34928 1.349281V290.614305h-11.866747a1.314683 1.314683 0 0 0-1.314683 1.314683v7.507534a1.34928 1.34928 0 0 0 1.314683 1.34928h11.901344v11.901344a1.314683 1.314683 0 0 0 1.34928 1.34928h7.507533a1.314683 1.314683 0 0 0 1.314684-1.34928v-11.901344h11.901343a1.383877 1.383877 0 0 0 1.487668-1.34928z" fill="#B3E5FC" p-id="4655"></path><path d="M193.32769 349.80965a25.46334 25.46334 0 1 0 25.394145 25.46334 25.46334 25.46334 0 0 0-25.394145-25.46334z m0 44.976007a19.581862 19.581862 0 1 1 19.512667-19.547264 19.581862 19.581862 0 0 1-19.512667 19.581861z m273.315736-192.255132a34.596929 34.596929 0 1 0 34.596929 34.596928 34.596929 34.596929 0 0 0-34.666122-34.562332z m0 63.381573a28.750048 28.750048 0 1 1 28.680854-28.750048 28.750048 28.750048 0 0 1-28.750047 28.784645z m370.982867 274.076869a20.342994 20.342994 0 1 0 20.308397 20.342994 20.377591 20.377591 0 0 0-20.377591-20.308397z m0 34.769914a14.426919 14.426919 0 1 1 14.426919-14.42692 14.426919 14.426919 0 0 1-14.496113 14.461517z m-51.134261 15.291842a21.484693 21.484693 0 1 0 21.450096 21.484693 21.450096 21.450096 0 0 0-21.450096-21.484693zM235.639733 401.601252a16.191363 16.191363 0 1 0 16.156766 16.156766 16.156766 16.156766 0 0 0-16.156766-16.156766z" fill="#FFFFFF" p-id="4656"></path><path d="M823.199374 919.794051H140.809552a2.317994 2.317994 0 0 0-2.317994 2.283397v9.68714a2.283397 2.283397 0 0 0 2.317994 2.2488h682.389822a2.2488 2.2488 0 0 0 2.283397-2.2488v-9.583349a2.283397 2.283397 0 0 0-2.283397-2.387188z m55.908637 0H839.771303a2.317994 2.317994 0 0 0-2.317995 2.283397v9.68714a2.283397 2.283397 0 0 0 2.317995 2.2488h39.336708a2.283397 2.283397 0 0 0 2.283397-2.2488v-9.583349a2.317994 2.317994 0 0 0-2.283397-2.387188z m-389.492224 54.663147v-9.68714a2.317994 2.317994 0 0 0-2.283397-2.283397H211.45648a2.317994 2.317994 0 0 0-2.283397 2.283397v9.68714a2.317994 2.317994 0 0 0 2.283397 2.283397h275.87591a2.317994 2.317994 0 0 0 2.283397-2.283397z m196.752734 35.288867H340.087861a2.283397 2.283397 0 0 0-2.283397 2.283398v9.68714a2.283397 2.283397 0 0 0 2.283397 2.283397h346.28066a2.283397 2.283397 0 0 0 2.283397-2.283397v-9.58335a2.283397 2.283397 0 0 0-2.283397-2.387188z m88.810316 0h-56.738963a2.317994 2.317994 0 0 0-2.283398 2.283398v9.68714a2.317994 2.317994 0 0 0 2.283398 2.283397h56.738963a2.283397 2.283397 0 0 0 2.283397-2.283397v-9.58335a2.283397 2.283397 0 0 0-2.283397-2.387188z m-75.594289-47.259404h-152.226487a2.317994 2.317994 0 0 0-2.283397 2.283397v9.68714a2.317994 2.317994 0 0 0 2.283397 2.283397h152.226487a2.317994 2.317994 0 0 0 2.317994-2.283397v-9.68714a2.317994 2.317994 0 0 0-2.317994-2.283397z m-169.940114 14.253934a2.283397 2.283397 0 0 0 2.283397-2.283397v-9.68714a2.283397 2.283397 0 0 0-2.283397-2.283397h-18.197985a2.283397 2.283397 0 0 0-2.283397 2.283397v9.68714a2.283397 2.283397 0 0 0 2.283397 2.283397z" fill="#B3E5FC" p-id="4657"></path><path d="M750.511227 481.623948c-25.947697-52.82951-62.274472-52.82951-62.274472-52.82951-76.113243-12.039731-101.057629 62.274472-101.057629 62.274472-52.864107 6.469626-38.056622 55.597264-38.056621 55.597264h236.470007c7.576727-46.567466-35.081286-65.042226-35.081285-65.042226z" fill="#FFFFFF" p-id="4658"></path><path d="M753.936323 479.894102c-25.670921-51.618618-60.648416-53.832821-64.246497-53.902015a106.316362 106.316362 0 0 0-16.606526-1.34928c-58.814779 0-83.032629 53.659836-87.218857 64.108109-15.949184 2.317994-27.435364 8.753023-34.181766 19.132101-11.347793 17.298464-4.912764 39.509693-4.635988 40.44381a2.940739 2.940739 0 0 0 2.802351 2.075816h237.265737a2.940739 2.940739 0 0 0 2.906142-2.490979c7.057773-44.353263-29.441986-64.696257-36.084596-68.017562z m30.618281 64.592466h-232.38757c-1.210893-5.570106-3.459693-21.138723 4.463004-33.420633 6.019866-9.202783 16.67572-14.807485 31.725384-16.67572a2.975336 2.975336 0 0 0 2.456382-1.972025c0.207582-0.622745 21.51929-61.859309 82.271496-61.859308a101.196017 101.196017 0 0 1 15.87999 1.280086h0.44976c0.345969 0 34.596929 0.588148 59.714299 51.549424a2.906142 2.906142 0 0 0 1.453071 1.418474c0.415163 0.207582 38.956142 17.609837 33.974184 59.679702z" fill="#B3E5FC" p-id="4659"></path><path d="M332.580328 357.836138h327.286945a3.909453 3.909453 0 0 1 3.909453 3.909452v418.622838a3.94405 3.94405 0 0 1-3.94405 3.94405H332.580328a3.94405 3.94405 0 0 1-3.94405-3.94405v-418.622838a3.94405 3.94405 0 0 1 3.94405-3.909452z" fill="#FFFFFF" p-id="4660"></path><path d="M659.867273 353.892088H332.580328a7.853503 7.853503 0 0 0-7.853503 7.853502v418.588241a7.853503 7.853503 0 0 0 7.853503 7.8881h327.286945a7.853503 7.853503 0 0 0 7.853503-7.8881v-418.622837a7.853503 7.853503 0 0 0-7.853503-7.818906z m0 426.47634H332.580328V361.710994h327.286945z m0 3.94405v-3.978647z m-20.100815-361.780084H352.369771a3.909453 3.909453 0 0 0-3.909453 3.909453v331.715353a3.909453 3.909453 0 0 0 3.909453 3.94405h287.396687a3.94405 3.94405 0 0 0 3.909453-3.94405v-331.715353a3.94405 3.94405 0 0 0-3.909453-3.909453z m-3.94405 331.715353h-279.543184V430.385897h279.543184z m-259.096399-351.020439a7.957294 7.957294 0 1 0-7.957294-7.957294 7.922697 7.922697 0 0 0 7.957294 7.957294z m29.026823 0a7.957294 7.957294 0 1 0-7.957294-7.957294 7.957294 7.957294 0 0 0 7.957294 7.957294z m29.026823 0a7.957294 7.957294 0 1 0-7.922697-7.957294 7.957294 7.957294 0 0 0 7.922697 7.957294z" fill="#B3E5FC" p-id="4661"></path><path d="M379.943523 629.041462c-18.889923-38.402591-45.183589-38.402591-45.183589-38.402591-55.355086-8.78762-73.518474 45.148992-73.518473 45.148992-38.437188 4.705182-27.677543 40.409213-27.677543 40.409213h171.946735c5.431718-33.662812-25.56713-47.155614-25.56713-47.155614z" fill="#FFFFFF" p-id="4662"></path><path d="M381.292803 625.893141c-18.716938-37.122505-44.180278-39.025336-47.224807-39.129126a77.220345 77.220345 0 0 0-12.143522-0.968714c-42.485028 0-60.371641 37.745249-63.900528 46.359884-11.589971 1.764443-19.962428 6.469626-24.944385 14.08095-8.441651 12.904654-3.667274 29.165211-3.459693 29.85715a2.940739 2.940739 0 0 0 2.836948 2.075816h172.292705a2.906142 2.906142 0 0 0 2.906142-2.456382c5.258733-31.932965-20.72356-47.017226-26.36286-49.819578z m20.758158 46.394482H234.878601a31.932965 31.932965 0 0 1 3.252111-22.833973c4.220825-6.469626 11.797553-10.379079 22.488004-11.728359a2.940739 2.940739 0 0 0 2.421785-1.972025c0-0.415163 15.464827-44.076487 58.814779-44.076487a72.20379 72.20379 0 0 1 11.416986 0.934117h0.44976c0.276775 0 24.736804 0.415163 42.658013 36.741938a2.975336 2.975336 0 0 0 1.453071 1.383877c0.44976 0.172985 27.677543 12.28191 24.460029 41.550912z" fill="#B3E5FC" p-id="4663"></path><path d="M533.415499 689.966653a103.202638 102.925863 90 1 0 205.851726 0 103.202638 102.925863 90 1 0-205.851726 0Z" fill="#FFFFFF" p-id="4664"></path><path d="M636.375959 585.795301a104.171352 104.171352 0 1 0 103.790786 104.171352 104.136755 104.136755 0 0 0-103.790786-104.171352z m0 198.897743a94.726391 94.726391 0 1 1 94.345824-94.726391 94.691794 94.691794 0 0 1-94.345824 94.726391z" fill="#B3E5FC" p-id="4665"></path></svg>