<?xml version="1.0" standalone="no"?>
<!DOCTYPE svg PUBLIC "-//W3C//DTD SVG 1.1//EN" "http://www.w3.org/Graphics/SVG/1.1/DTD/svg11.dtd">
<svg t="1539961241663" class="icon" style="" viewBox="0 0 1024 1024" version="1.1"
    xmlns="http://www.w3.org/2000/svg" p-id="10437"
    xmlns:xlink="http://www.w3.org/1999/xlink" width="200" height="200">
    <defs>
        <style type="text/css"></style>
    </defs>
    <path d="M994.816 823.296h-58.88v-199.68c0-265.216-186.368-474.624-423.936-474.624-237.056 0-423.936 209.408-423.936 474.624v199.68H29.184v-199.68c0-72.192 12.8-142.336 37.888-208.384 24.576-64 59.392-121.344 103.424-171.008 44.544-49.664 96.256-88.576 153.6-115.712 59.392-28.16 122.88-42.496 187.904-42.496s128.512 14.336 187.904 42.496c57.344 27.136 109.056 66.048 153.6 115.712 44.544 49.664 79.36 107.008 103.424 171.008 25.088 66.048 37.888 136.192 37.888 208.384v199.68z" fill="#03a9f4" p-id="10438"></path>
    <path d="M287.232 937.984H182.272c-24.064 0-43.52-23.04-43.52-51.712v-224.256c0-28.672 19.456-51.712 43.52-51.712h104.96c24.064 0 43.52 23.04 43.52 51.712v224.256c0 28.672-19.456 51.712-43.52 51.712z m-99.328-58.368H281.6v-210.944H187.904v210.944zM838.656 937.984h-104.96c-24.064 0-43.52-23.04-43.52-51.712v-224.256c0-28.672 19.456-51.712 43.52-51.712h104.96c24.064 0 43.52 23.04 43.52 51.712v224.256c0 28.672-19.456 51.712-43.52 51.712z m-99.328-58.368h93.696v-210.944h-93.696v210.944z" fill="#03a9f4" p-id="10439"></path>
</svg>