<?xml version="1.0" standalone="no"?>
<!DOCTYPE svg PUBLIC "-//W3C//DTD SVG 1.1//EN" "http://www.w3.org/Graphics/SVG/1.1/DTD/svg11.dtd">
<svg t="1539960912336" class="icon" style="" viewBox="0 0 1024 1024" version="1.1"
    xmlns="http://www.w3.org/2000/svg" p-id="2796"
    xmlns:xlink="http://www.w3.org/1999/xlink" width="200" height="200">
    <defs>
        <style type="text/css"></style>
    </defs>
    <path d="M832 134.4c38.4 0 64 32 64 70.4v467.2c0 38.4-25.6 70.4-64 70.4H192c-38.4 0-64-32-64-70.4V204.8c0-38.4 25.6-70.4 64-70.4h640m0-64H192c-70.4 0-128 57.6-128 134.4v467.2c0 76.8 57.6 134.4 128 134.4h640c70.4 0 128-57.6 128-134.4V204.8c0-76.8-57.6-134.4-128-134.4zM928 953.6h-832c-19.2 0-32-12.8-32-32s12.8-32 32-32h832c19.2 0 32 12.8 32 32 0 12.8-12.8 32-32 32z" fill="#03a9f4" p-id="2797"></path>
    <path d="M403.2 326.4H256c-19.2 0-32-12.8-32-32s12.8-32 32-32h147.2c19.2 0 32 12.8 32 32s-19.2 32-32 32zM460.8 473.6H256c-19.2 0-32-12.8-32-32s12.8-32 32-32h204.8c19.2 0 32 12.8 32 32 0 12.8-12.8 32-32 32zM588.8 614.4H256c-19.2 0-32-12.8-32-32s12.8-32 32-32h332.8c19.2 0 32 12.8 32 32s-12.8 32-32 32zM819.2 352c0-38.4-19.2-70.4-51.2-89.6l-51.2 89.6h102.4z" fill="#03a9f4" p-id="2798"></path>
    <path d="M691.2 371.2l51.2-89.6c-12.8-6.4-32-12.8-51.2-12.8-57.6 0-102.4 44.8-102.4 102.4s44.8 102.4 102.4 102.4 102.4-44.8 102.4-102.4h-102.4z" fill="#03a9f4" p-id="2799"></path>
</svg>