<?xml version="1.0" standalone="no"?><!DOCTYPE svg PUBLIC "-//W3C//DTD SVG 1.1//EN" "http://www.w3.org/Graphics/SVG/1.1/DTD/svg11.dtd"><svg t="1540038949788" class="icon" style="" viewBox="0 0 1031 1024" version="1.1" xmlns="http://www.w3.org/2000/svg" p-id="4180" xmlns:xlink="http://www.w3.org/1999/xlink" width="201.3671875" height="200"><defs><style type="text/css"></style></defs><path d="M941.4976 204.8c-25.6 0-51.2 19.2-64 44.8-12.8 25.6-6.4 57.6 12.8 76.8l-6.4 32c-19.2 70.4-76.8 115.2-147.2 115.2-76.8 0-147.2-64-153.6-140.8L576.6976 243.2c32-19.2 57.6-64 44.8-115.2C615.0976 83.2 576.6976 51.2 538.2976 44.8c-76.8-19.2-134.4 38.4-134.4 108.8 0 38.4 19.2 70.4 44.8 89.6l-6.4 96c-6.4 76.8-70.4 140.8-147.2 140.8-70.4 0-134.4-51.2-147.2-115.2l-12.8-38.4c19.2-19.2 25.6-51.2 12.8-76.8-12.8-25.6-38.4-44.8-64-44.8-51.2 0-89.6 44.8-83.2 89.6 6.4 25.6 25.6 44.8 44.8 57.6L115.8976 832h793.6l70.4-480c19.2-12.8 38.4-32 44.8-57.6 6.4-44.8-32-89.6-83.2-89.6z m0 0" fill="#F9C85D" p-id="4181"></path><path d="M787.8976 985.6H231.0976c-64 0-115.2-51.2-115.2-115.2h793.6c0 64-51.2 115.2-121.6 115.2z m0 0" fill="#83C6EF" p-id="4182"></path><path d="M0.6976 281.6c0 44.8 32 76.8 76.8 76.8s76.8-32 76.8-76.8-32-76.8-76.8-76.8S0.6976 236.8 0.6976 281.6z m0 0" fill="#F9C85D" p-id="4183"></path><path d="M941.4976 204.8c-25.6 0-51.2 19.2-64 44.8-12.8 25.6-6.4 57.6 12.8 76.8l-6.4 32c-19.2 70.4-76.8 115.2-147.2 115.2-76.8 0-147.2-64-153.6-140.8L576.6976 243.2c32-19.2 57.6-64 44.8-115.2C615.0976 83.2 576.6976 51.2 538.2976 44.8H512.6976V832h396.8l70.4-480c19.2-12.8 38.4-32 44.8-57.6 6.4-44.8-32-89.6-83.2-89.6z m0 0" fill="#FFB103" p-id="4184"></path><path d="M871.0976 281.6c0 44.8 32 76.8 76.8 76.8S1024.6976 326.4 1024.6976 281.6s-32-76.8-76.8-76.8-76.8 32-76.8 76.8z m0 0M397.4976 147.2c0 64 51.2 115.2 115.2 115.2s115.2-51.2 115.2-115.2c0-38.4-19.2-76.8-57.6-96C538.2976 32 493.4976 32 455.0976 51.2c-32 19.2-57.6 57.6-57.6 96z m0 0" fill="#F9C85D" p-id="4185"></path><path d="M512.6976 870.4v115.2h281.6c64 0 115.2-51.2 115.2-115.2H512.6976z m0 0" fill="#429BCF" p-id="4186"></path><path d="M135.0976 230.4c-12.8 44.8-51.2 83.2-102.4 108.8 12.8 12.8 32 19.2 44.8 19.2 44.8 0 76.8-32 76.8-76.8 0-19.2-6.4-38.4-19.2-51.2z m870.4 0c-12.8 44.8-51.2 83.2-102.4 108.8 12.8 12.8 32 19.2 51.2 19.2 44.8 0 76.8-32 76.8-76.8-6.4-19.2-12.8-38.4-25.6-51.2zM589.4976 70.4c0 6.4 6.4 12.8 6.4 19.2 0 51.2-64 96-147.2 96-12.8 0-32 0-44.8-6.4 12.8 51.2 57.6 83.2 108.8 83.2 64 0 115.2-51.2 115.2-115.2 0-32-12.8-57.6-38.4-76.8z m0 0" fill="#FFB103" p-id="4187"></path><path d="M39.0976 249.6s6.4 6.4 12.8 0c6.4 0 12.8-6.4 19.2-12.8 6.4-6.4 6.4-6.4 6.4-12.8 0 0-6.4-6.4-12.8 0-6.4 0-12.8 6.4-19.2 12.8-6.4 6.4-6.4 6.4-6.4 12.8z m0 0M960.6976 243.2c6.4 6.4 12.8 6.4 19.2 6.4 6.4 0 6.4-6.4 6.4-6.4 0-6.4-6.4-6.4-12.8-12.8s-12.8-6.4-19.2-6.4c-6.4 0-6.4 6.4-6.4 6.4 0 6.4 6.4 12.8 12.8 12.8z m0 0M467.8976 70.4c0 6.4 19.2 12.8 44.8 12.8 25.6 0 44.8-6.4 44.8-12.8C551.0976 64 531.8976 57.6 512.6976 57.6c-25.6 0-44.8 6.4-44.8 12.8z m0 0" fill="#F7EAD0" p-id="4188"></path><path d="M544.6976 646.4h-64c-12.8 0-25.6-12.8-25.6-25.6s12.8-25.6 25.6-25.6h64c12.8 0 25.6 12.8 25.6 25.6s-6.4 25.6-25.6 25.6z m0 0" fill="#DA3329" p-id="4189"></path><path d="M544.6976 588.8H512.6976v51.2h32c12.8 0 25.6-12.8 25.6-25.6s-6.4-25.6-25.6-25.6z m0 0" fill="#C11B16" p-id="4190"></path></svg>